<svg xmlns="http://www.w3.org/2000/svg" viewBox="0 0 800 500" width="100%" height="100%">
  <style>
    .bg { fill: #6b6d6e; }
    .logo-path { fill: #ffffff; fill-rule: evenodd; }
  </style>

  <rect width="100%" height="100%" class="bg" />

  <g transform="translate(110, 210)">
    
    <path class="logo-path" d="M 65 0 L 25 0 C 11.2 0 0 11.2 0 25 L 0 55 C 0 68.8 11.2 80 25 80 L 65 80 L 65 68 L 25 68 C 17.8 68 12 62.2 12 55 L 12 25 C 12 17.8 17.8 12 25 12 L 65 12 Z" />
    
    <path class="logo-path" d="M 95 0 L 107 0 L 107 80 L 95 80 Z" />
    
    <path class="logo-path" d="M 137 0 L 175 0 C 189.4 0 201 11.6 201 26 C 201 40.4 189.4 52 175 52 L 149 52 L 149 80 L 137 80 L 137 0 Z M 149 12 L 149 40 L 175 40 C 182.7 40 189 33.7 189 26 C 189 18.3 182.7 12 175 12 Z" />
    
    <path class="logo-path" d="M 231 0 L 243 0 L 243 34 L 277 34 L 277 0 L 289 0 L 289 80 L 277 80 L 277 46 L 243 46 L 243 80 L 231 80 Z" />
    
    <path class="logo-path" d="M 320 0 L 375 0 L 375 12 L 320 12 Z M 320 34 L 365 34 L 365 46 L 320 46 Z M 320 68 L 375 68 L 375 80 L 320 80 Z" />
    
    <path class="logo-path" d="M 405 0 L 445 0 C 459.4 0 471 11.6 471 26 C 471 38.2 462.6 48.4 451.4 51.1 L 474 80 L 459 80 L 437.5 52 L 417 52 L 417 80 L 405 80 Z M 417 12 L 417 40 L 445 40 C 452.7 40 459 33.7 459 26 C 459 18.3 452.7 12 445 12 Z" />
    
  </g>
</svg>
